<?xml version="1.0" standalone="no"?>
<!DOCTYPE svg PUBLIC "-//W3C//DTD SVG 20010904//EN"
 "http://www.w3.org/TR/2001/REC-SVG-20010904/DTD/svg10.dtd">
<svg version="1.0" xmlns="http://www.w3.org/2000/svg"
 width="1943.000000pt" height="386.000000pt" viewBox="0 0 1943.000000 386.000000"
 preserveAspectRatio="xMidYMid meet">

<g transform="translate(0.000000,386.000000) scale(0.100000,-0.100000)"
fill="#000000" stroke="none">
<path d="M0 3655 l0 -205 267 -2 266 -3 249 -885 c157 -558 260 -909 280 -950
79 -164 308 -312 461 -298 l33 3 -311 1105 c-171 608 -318 1121 -327 1140 -42
96 -158 209 -263 255 -86 39 -145 45 -405 45 l-250 0 0 -205z"/>
<path d="M6250 2215 l0 -1515 198 2 197 3 3 623 2 622 478 0 477 0 319 -612
c175 -337 322 -616 326 -621 3 -4 99 -6 213 -5 l206 3 -344 640 c-189 352
-344 645 -345 650 0 6 26 21 58 33 88 36 211 123 289 205 167 176 242 389 230
647 -20 423 -297 727 -745 817 -64 13 -199 17 -819 20 l-743 4 0 -1516z m1505
1112 c250 -72 385 -245 385 -492 0 -249 -137 -421 -390 -491 -57 -15 -126 -18
-582 -21 l-518 -5 0 517 0 516 523 -3 c457 -4 529 -6 582 -21z"/>
<path d="M18367 3503 c-4 -3 -7 -152 -7 -330 l0 -323 -210 0 -210 0 0 -160 0
-160 209 0 210 0 3 -642 c4 -623 5 -645 26 -721 62 -224 198 -361 422 -428 66
-19 105 -22 323 -26 l247 -5 0 166 0 166 -42 1 c-24 0 -122 4 -218 8 -165 6
-179 8 -220 33 -60 35 -84 62 -117 133 l-28 60 -3 628 -3 627 336 0 335 0 0
160 0 160 -335 0 -335 0 0 330 0 330 -188 0 c-104 0 -192 -3 -195 -7z"/>
<path d="M1695 3431 c-179 -51 -308 -187 -351 -367 -29 -124 -3 -255 74 -368
20 -30 257 -281 527 -558 l489 -503 -296 -5 c-281 -5 -298 -6 -325 -26 -98
-73 -98 -207 0 -272 l41 -27 593 -3 593 -3 0 597 c0 668 3 642 -72 692 -73 48
-175 27 -224 -46 -17 -24 -19 -56 -24 -319 l-5 -293 -536 553 -537 552 1086 3
c597 1 1087 1 1088 -1 2 -2 -117 -390 -265 -863 -147 -472 -266 -862 -262
-865 10 -11 135 9 197 31 75 26 183 99 234 159 22 25 53 73 70 106 16 33 113
328 216 655 198 635 208 679 185 793 -29 137 -127 271 -247 334 -123 66 -75
63 -1184 62 -920 0 -1010 -2 -1065 -18z"/>
<path d="M16455 2844 c-147 -24 -307 -84 -412 -155 -69 -47 -188 -164 -238
-234 -92 -129 -160 -301 -191 -479 -13 -70 -15 -134 -11 -276 4 -164 8 -198
35 -302 52 -202 142 -366 273 -496 224 -223 570 -310 887 -222 186 52 369 183
480 343 22 32 42 54 45 50 2 -4 35 -92 72 -196 l67 -187 209 0 209 0 -21 53
c-12 28 -53 131 -92 227 l-72 175 -5 845 -5 845 -192 3 -193 2 -1 -232 0 -233
-18 57 c-57 177 -238 331 -457 389 -78 20 -298 34 -369 23z m352 -360 c76 -20
182 -76 250 -132 108 -90 190 -222 235 -378 31 -109 31 -331 0 -445 -67 -246
-232 -429 -457 -505 -205 -69 -454 -14 -620 138 -296 272 -315 842 -37 1139
77 81 148 129 247 165 121 44 258 50 382 18z"/>
<path d="M9556 2814 c-153 -30 -317 -107 -434 -205 -264 -219 -410 -604 -373
-987 29 -305 132 -535 324 -719 137 -132 294 -211 498 -253 90 -19 127 -21
274 -17 184 5 263 20 393 75 194 82 362 250 463 468 65 137 71 126 -116 199
-140 55 -161 61 -167 47 -4 -10 -21 -51 -37 -92 -76 -186 -230 -314 -425 -351
-73 -14 -242 -11 -320 6 -276 58 -473 297 -493 598 l-6 87 765 0 766 0 12 67
c16 95 14 302 -5 401 -33 172 -106 313 -223 430 -132 132 -292 213 -491 247
-103 18 -312 18 -405 -1z m417 -358 c145 -49 243 -132 299 -253 26 -54 32 -82
36 -159 l5 -94 -587 0 -586 0 0 24 c0 47 50 183 90 245 76 117 188 201 325
244 77 24 91 26 220 23 98 -3 134 -8 198 -30z"/>
<path d="M12005 2815 c-282 -62 -513 -245 -581 -460 -11 -35 -13 -9 -13 198
l-1 237 -182 -2 -183 -3 0 -1390 0 -1390 192 -3 193 -2 2 497 3 497 28 -42
c96 -145 291 -266 496 -307 113 -23 331 -16 446 14 271 71 498 267 620 535
173 379 136 907 -85 1237 -24 35 -80 100 -124 144 -174 171 -389 256 -644 254
-59 0 -134 -7 -167 -14z m287 -368 c162 -59 285 -167 362 -315 60 -118 86
-218 93 -362 19 -403 -191 -715 -529 -784 -148 -31 -278 -14 -414 54 -324 159
-476 586 -345 967 40 116 83 184 176 278 86 87 178 143 290 177 90 27 275 20
367 -15z"/>
<path d="M14180 2811 c-187 -41 -337 -119 -466 -243 -211 -203 -317 -450 -331
-773 -12 -279 48 -518 179 -718 137 -208 331 -346 586 -415 89 -24 113 -26
297 -26 188 -1 206 1 298 27 245 68 422 205 551 425 46 78 100 212 89 222 -8
7 -284 115 -312 122 -8 2 -20 -15 -31 -47 -52 -150 -165 -292 -278 -349 -132
-67 -348 -87 -506 -46 -275 70 -450 292 -480 607 l-7 73 768 2 768 3 13 75
c31 178 -3 462 -73 601 -111 220 -313 380 -561 445 -136 36 -377 43 -504 15z
m365 -336 c247 -53 404 -231 405 -462 l0 -63 -589 0 -588 0 8 48 c45 238 223
427 451 477 84 18 227 18 313 0z"/>
<path d="M1436 1105 c-73 -30 -138 -92 -174 -165 -38 -78 -39 -190 -1 -270 49
-105 126 -166 239 -189 132 -27 288 48 349 166 139 273 -132 574 -413 458z"/>
<path d="M3068 1113 c-101 -38 -184 -124 -209 -216 -14 -53 -13 -149 2 -195
30 -90 116 -179 202 -208 258 -87 503 152 422 411 -23 71 -97 155 -169 192
-67 35 -179 42 -248 16z"/>
</g>
</svg>
